<?xml version="1.0" encoding="utf-8"?>
<!-- Generator: Adobe Illustrator 25.4.1, SVG Export Plug-In . SVG Version: 6.00 Build 0)  -->
<svg version="1.1" baseProfile="basic" id="Слой_1"
	 xmlns="http://www.w3.org/2000/svg" xmlns:xlink="http://www.w3.org/1999/xlink" x="0px" y="0px" viewBox="0 0 1000 1000"
	 xml:space="preserve">
<style type="text/css">
	.st0{fill:#00C8FF;}
	.st1{fill:#030303;}
	.st2{fill:#040404;}
	.st3{fill:url(#SVGID_1_);}
	.st4{fill:url(#SVGID_00000101807692532167922610000011262489749139968668_);}
	.st5{fill:url(#SVGID_00000177458497594365207760000011789119216080229777_);}
	.st6{fill:url(#SVGID_00000070805144985042778500000009650894490906912940_);}
</style>
<g>
	<g>
		<path class="st0" d="M744.3,528.1c0.2,1.2,0.1,3-0.1,5.3c-0.5,3.2-1.2,6.6-2,10c-0.7,3.5-1.7,7.4-2.9,11.9
			c-1.1,4.5-1.9,7.8-2.4,9.9c-5.1,21.3-9.1,39.6-11.8,54.8c-2,11.4-3.6,22.6-4.8,33.4c-0.1,1.4-0.2,4.2-0.5,8.8
			c-0.2,4.6-0.5,7.9-0.9,10c-0.4,1.7-0.9,2.9-1.7,3.6c-0.9,0.6-2.2,1.1-4.2,1.5c-2.9,0.5-5.1,0.5-6.6,0c-1.6-0.5-2.6-2.1-3-4.6
			c-0.1-0.5-0.1-1.4-0.1-2.6c4.1-42,11.7-85.7,22.8-130.7c0.1-0.7,0.5-2,0.9-4s0.7-3.6,1.1-5.1c0.4-1.5,0.9-2.7,1.4-3.8
			c0.9-2.1,2.7-3.3,5.7-3.8c2.2-0.4,4.2-0.1,6,0.9C742.8,524.3,743.9,525.9,744.3,528.1z"/>
		<path class="st0" d="M771,582c0.1,0.9-0.5,4.8-1.7,11.9c-1.4,7.1-2.9,15.1-4.7,24.1c-1.7,8.9-2.7,13.8-3,14.6
			c-0.5,3.1-1,7.8-1.7,14.1c-0.6,6.3-1.2,11-1.7,14.1c-0.2,2-1.2,3.7-3,5.2c-1.7,1.6-3.6,2.5-5.7,2.9c-2,0.4-4-0.7-5.7-3.3
			s-2.9-5.1-3.3-7.6c-0.6-3.2-0.5-7.3,0.4-12.2c0.7-4.8,1.9-9.4,3.1-13.6c1.2-4.2,2.5-9.1,3.6-14.3s1.6-9.7,1.6-13.5
			c0-2.4,0.1-5,0.5-7.6s1-5.5,1.7-8.4c0.9-3,2.1-5.5,4-7.6s4-3.3,6.6-3.8c1.7-0.4,3.6,0,5.6,0.9C769.5,578.9,770.6,580.2,771,582z
			 M775.5,530.9c0.7,4,0,7.8-2.2,11.7c-2.2,3.8-5.2,6.1-9.1,6.8c-2.2,0.4-4-0.2-5.5-1.9c-1.5-1.6-2.4-3.6-2.9-6
			c-0.6-3.8,0.1-7.6,2.5-11.4c2.4-3.8,5.5-6.1,9.2-6.7c2.7-0.5,4.6-0.1,5.6,1.2C774.3,525.9,775.1,528,775.5,530.9z"/>
		<path class="st0" d="M865.7,532.7c0.5,2.9-0.1,5.3-2,7.3s-4.5,3.7-7.8,5c-3.3,1.4-6.9,2.6-10.5,3.7c-3.6,1.2-7.3,2.9-11,4.8
			c-3.7,2-6.4,4.3-8.4,7.1c-1,1.5-2.4,4.8-4,10s-2.9,9.4-3.5,12.7c-1.9,7.3-4.1,18-6.6,31.8c-2.5,13.9-4.1,22.6-4.7,26.2
			c-0.1,0.7-0.5,2.7-1.1,6s-1.1,5.8-1.7,7.8c-0.5,2-1.2,4-2,5.7c-1.2,3-3.8,4.8-7.8,5.6c-2.1,0.4-3.7-0.4-5.1-2.2
			c-1.2-1.9-2.1-4-2.6-6.3c-0.5-3-0.4-6.6,0.2-10.8c0.7-4.2,1.6-8.2,2.9-11.9c1.2-3.6,2.6-7.8,4.1-12.5s2.6-8.2,3.1-10.8
			c0.5-2.4,1.6-6.2,3.2-11.8c1.6-5.6,2.9-10.5,3.7-14.8c0.9-4.2,1.2-8.3,1.1-12l-1.1,0.2c-2.2,0.4-5.1,2.1-8.6,5
			c-3.5,3-6.3,4.6-8.7,5.1c-2.5,0.4-4.7,0-6.7-1.2c-2.1-1.2-3.3-3.1-3.7-5.5c-0.4-2.2,0.9-5,3.8-7.9c3-3,6.3-5.7,10.2-8.1
			c3.8-2.4,7.8-4.8,12.2-7.6c4.3-2.6,7.2-4.5,8.4-5.5c6.1-15.8,10.3-27.7,12.5-35.7c0.4-1,0.7-2.6,1.4-4.8c0.5-2.2,1-4.1,1.5-5.3
			c0.5-1.4,1.1-2.9,1.9-4.6s1.9-3.1,3.1-4.2s2.7-2,4.5-2.6l0.5-0.1c1.9-0.4,3.6-0.1,5.2,0.7c1.6,0.9,2.5,2.2,2.9,4.1
			c0.4,2-0.2,5.5-1.9,10.3c-1.6,4.8-3.5,10.4-5.6,16.6c-2.2,6.2-3.6,11.2-4.2,15c1.6-0.6,4-1.6,7.2-3.1s6.1-2.7,8.8-3.7
			s5.2-1.7,7.4-2.1c2.2-0.4,4.3-0.2,6.2,0.5C864.2,529.2,865.3,530.7,865.7,532.7z"/>
		<path class="st0" d="M919.4,556.2c0.5,2.5,0.4,5.1-0.1,7.8s-1.2,5.3-2.4,7.7c-1.1,2.4-2.6,5-4.7,7.8c-2.1,2.9-4,5.3-5.8,7.4
			c-1.9,2.2-4.3,4.6-7.3,7.3c-3.1,2.7-5.6,5-7.7,6.7c-2.1,1.7-4.8,3.8-8.3,6.4c-3.5,2.6-6,4.5-7.7,5.7s-4.1,3-7.3,5.1
			c-3.2,2.2-5.2,3.6-6.1,4.2c-0.2,0.7-0.2,1.6-0.1,2.4c0.5,2.7,2.1,4.7,4.8,6.1c2.9,1.4,5.6,1.9,8.3,1.4c4-0.7,9.3-3.1,16.1-7.3
			s11.7-6.4,14.5-6.9c2.5-0.4,3.8,0.5,4.2,2.6c0.5,3,0,5.8-1.5,8.7s-3.6,5.2-6.2,7.3c-2.7,2.1-5.7,4-9.2,5.7
			c-3.3,1.7-6.7,3.1-9.8,4.1s-6,1.7-8.6,2.1c-7.2,1.2-13.6,0.1-19.6-3.3s-9.6-8.8-10.8-15.8c-1-6-1-11.4,0.2-16.6
			c1.6-7.2,4.2-14.5,7.6-21.8c3.3-7.3,7.4-14.3,12.2-20.8s10.4-12.3,17-17s13.5-7.8,20.8-9.1c4.5-0.7,8.3-0.1,11.3,2.1
			C916.7,548.2,918.7,551.7,919.4,556.2z M901.8,563.5c-0.2-1.1-1.1-1.5-2.9-1.2c-3.1,0.5-7.3,2.9-12.5,6.9
			c-5.2,4.1-9.1,7.7-11.5,10.8c-2.4,2.9-4.7,6.7-7.1,11.3c-2.4,4.7-3.3,8.3-3,10.8c2-1.2,3.8-2.4,5.6-3.5c1.7-1.1,4-2.6,6.7-4.5
			c2.7-2,5.3-3.7,7.4-5.6c2.2-1.7,4.5-3.7,6.9-6.1c2.4-2.2,4.3-4.5,5.8-6.4c1.5-2,2.7-4.1,3.6-6.4
			C901.9,567.6,902.2,565.5,901.8,563.5z"/>
	</g>
	<g>
		<path class="st1" d="M162,365.2c-14.9,25.5-27.2,46.5-41.9,71.6c15.4,0,26.7-0.5,38,0.2c8.4,0.5,15.3,4.5,15.3,13.9
			c0,7.8-6,13-13,13.2c-22.4,0.8-45.1,1.7-67.3-0.5c-13.5-1.4-16.1-11.8-9-23.6c21-35.3,41.4-70.9,62.7-106
			c9.7-15.9,21.4-15.6,31,0.3c20.7,34.3,40.8,69,61.3,103.5c5.3,8.9,9.3,18.1-2.9,24.2c-11.5,5.7-17.7-1.7-23.1-10.8
			C197.3,424,181.1,397.1,162,365.2z"/>
		<path class="st2" d="M216.4,323c10,0.4,14.2,6.5,18.2,13.3c19.6,33.7,39.5,67.2,59.4,100.8c5.2,8.8,9.4,18.1-1.7,24.6
			c-11,6.3-18-1-23.3-10c-20.3-34.4-40.6-68.8-61-103.2C200.8,336.3,201.1,327,216.4,323z"/>
		<path class="st2" d="M274.6,323.1c9.8,0.3,14.3,5.7,18.4,12.8c19.5,33.7,39.5,67.2,59.4,100.7c5.1,8.7,9.8,18.4-1,24.8
			c-12.4,7.4-19.2-1.9-24.9-11.7C306.8,416,287,382.5,267.1,349C260.1,337.2,259.1,327.6,274.6,323.1z"/>
		<g>
			
				<linearGradient id="SVGID_1_" gradientUnits="userSpaceOnUse" x1="467.7298" y1="982.3174" x2="449.1243" y2="522.1428" gradientTransform="matrix(1 0 0 -1 0 997.8898)">
				<stop  offset="0" style="stop-color:#2380BE"/>
				<stop  offset="1" style="stop-color:#00C8FF"/>
			</linearGradient>
			<path class="st3" d="M502.2,324.5c-7.4,0-13.4,6-13.4,13.4v80.3l-75.4-88.9l0,0c0-0.1-0.1-0.1-0.2-0.2c-2.2-2.5-5.3-4.2-8.8-4.6
				c-0.5,0-0.9-0.1-1.4-0.1s-0.9,0-1.4,0.1c-0.1,0-0.3,0-0.4,0.1c-0.3,0-0.6,0.1-0.9,0.1c-0.2,0-0.3,0.1-0.5,0.1
				c-0.3,0.1-0.5,0.1-0.8,0.2c-0.2,0.1-0.3,0.1-0.5,0.2s-0.5,0.2-0.7,0.3c-0.2,0.1-0.3,0.2-0.5,0.2c-0.2,0.1-0.5,0.2-0.7,0.3
				c-0.2,0.1-0.3,0.2-0.5,0.3c-0.2,0.1-0.4,0.2-0.6,0.4c-0.2,0.1-0.3,0.2-0.5,0.3c-0.2,0.1-0.4,0.3-0.6,0.4
				c-0.1,0.1-0.3,0.3-0.4,0.4c-0.2,0.2-0.3,0.3-0.5,0.5c-0.1,0.1-0.3,0.3-0.4,0.4c-0.2,0.2-0.3,0.3-0.5,0.5
				c-0.1,0.2-0.3,0.3-0.4,0.5s-0.3,0.3-0.4,0.5s-0.2,0.4-0.3,0.5c-0.1,0.2-0.2,0.4-0.3,0.5c-0.1,0.2-0.2,0.4-0.3,0.6
				c-0.1,0.2-0.2,0.4-0.3,0.6c-0.1,0.2-0.2,0.4-0.3,0.6c-0.1,0.2-0.1,0.4-0.2,0.6s-0.1,0.4-0.2,0.7c-0.1,0.2-0.1,0.4-0.2,0.6
				c0,0.2-0.1,0.5-0.1,0.7s-0.1,0.4-0.1,0.6s0,0.4-0.1,0.7c0,0.1,0,0.3,0,0.4c0,0.2,0,0.3,0,0.5v0.1v116.7c0,7.4,6,13.4,13.4,13.4
				s13.4-6,13.4-13.4v-80.3l75.4,88.9l0,0c2.5,2.9,6.2,4.8,10.3,4.8c7.3,0,13.2-5.8,13.4-13l0,0c0-0.2,0-0.3,0-0.5l0,0l0,0v-0.1l0,0
				l0,0V337.9C515.7,330.5,509.6,324.5,502.2,324.5z"/>
			
				<linearGradient id="SVGID_00000128486219659880730010000015012441392605758370_" gradientUnits="userSpaceOnUse" x1="607.5168" y1="976.6656" x2="588.9114" y2="516.4911" gradientTransform="matrix(1 0 0 -1 0 997.8898)">
				<stop  offset="0" style="stop-color:#2380BE"/>
				<stop  offset="1" style="stop-color:#00C8FF"/>
			</linearGradient>
			<path style="fill:url(#SVGID_00000128486219659880730010000015012441392605758370_);" d="M631.3,351.4c7.4,0,13.4-6,13.4-13.4
				s-6-13.4-13.4-13.4h-76c-0.6-0.1-1.3-0.2-1.9-0.2c-7.4,0-13.4,6-13.4,13.4v0.1v0.1v116.9c0,1.7,0.3,3.4,0.9,4.9
				c0.2,0.5,0.4,1,0.7,1.5c2,3.7,5.8,6.4,10.2,6.9c0.5,0.1,1,0.1,1.6,0.1h77.9c7.4,0,13.4-6,13.4-13.4s-6-13.4-13.4-13.4h-64.5
				v-31.6h53.1c7.4,0,13.4-6,13.4-13.4s-6-13.4-13.4-13.4h-53.1v-31.6h64.5V351.4z"/>
			
				<linearGradient id="SVGID_00000030479508551814260360000008533955249088030081_" gradientUnits="userSpaceOnUse" x1="736.6536" y1="971.4445" x2="718.0482" y2="511.27" gradientTransform="matrix(1 0 0 -1 0 997.8898)">
				<stop  offset="0" style="stop-color:#2380BE"/>
				<stop  offset="1" style="stop-color:#00C8FF"/>
			</linearGradient>
			<path style="fill:url(#SVGID_00000030479508551814260360000008533955249088030081_);" d="M769.7,324.5c-4.2,0-7.9,1.9-10.4,4.9
				l0,0l-37.5,45.8l0,0l-0.1,0.1l-37.5-45.9l0,0c-2.5-3-6.2-4.9-10.4-4.9c-7.4,0-13.4,6-13.4,13.4c0,3.2,1.1,6.2,3,8.5l0,0l0,0l0,0
				l41.1,49.7l-0.2,0.2l0,0l-40.9,49.9l0,0l0,0l0,0c-1.9,2.3-3,5.3-3,8.5c0,7.4,6,13.4,13.4,13.4c4.2,0,7.9-1.9,10.4-4.9l0,0
				l30-36.5l0,0l7.5-9.2l37.5,45.7l0,0c2.5,3,6.2,4.9,10.4,4.9c7.4,0,13.4-6,13.4-13.4c0-3.2-1.1-6.2-3-8.5l0,0l0,0l0,0l-40.9-49.9
				l0,0l0,0l40.9-49.9l0,0c1.9-2.3,3-5.3,3-8.5C783.1,330.5,777.1,324.5,769.7,324.5z"/>
			
				<linearGradient id="SVGID_00000089537576407052741780000013012396372027735727_" gradientUnits="userSpaceOnUse" x1="869.678" y1="966.0885" x2="851.0725" y2="505.914" gradientTransform="matrix(1 0 0 -1 0 997.8898)">
				<stop  offset="0" style="stop-color:#2380BE"/>
				<stop  offset="1" style="stop-color:#00C8FF"/>
			</linearGradient>
			<path style="fill:url(#SVGID_00000089537576407052741780000013012396372027735727_);" d="M906.3,324.5h-98
				c-7.4,0-13.4,6-13.4,13.4s6,13.4,13.4,13.4h35.6v103.4c0,7.4,6,13.4,13.4,13.4s13.4-6,13.4-13.4V351.4h35.6
				c7.4,0,13.4-6,13.4-13.4C919.7,330.5,913.7,324.5,906.3,324.5z"/>
		</g>
	</g>
</g>
</svg>
